<svg width="48" height="45" viewBox="0 0 48 45" fill="none" xmlns="http://www.w3.org/2000/svg">
<g filter="url(#filter0_d)">
<rect width="40" height="37" transform="translate(4)" fill="white"/>
<path d="M36.2623 28.2371C38.7813 25.5265 40.1685 22.0685 40.1685 18.5C40.1685 10.2525 32.9146 3.5426 23.9983 3.5426C15.0821 3.5426 7.82812 10.2525 7.82812 18.5C7.82812 26.7476 15.0821 33.4575 23.9983 33.4575C27.8561 33.4575 31.5945 32.1743 34.5249 29.8442C34.789 29.6343 35.1852 29.6596 35.4164 29.8986C35.7292 29.6303 36.0311 29.3511 36.3212 29.0617C36.0627 28.8479 36.0353 28.4814 36.2623 28.2371ZM23.36 5.31388C23.36 4.98781 23.6458 4.72345 23.9983 4.72345C24.3508 4.72345 24.6366 4.98781 24.6366 5.31388V7.67558C24.6366 8.00165 24.3508 8.26601 23.9983 8.26601C23.6458 8.26601 23.36 8.00165 23.36 7.67558V5.31388ZM12.2962 19.0905H9.74302C9.39051 19.0905 9.10472 18.8261 9.10472 18.5C9.10472 18.174 9.39051 17.9096 9.74302 17.9096H12.2962C12.6487 17.9096 12.9345 18.174 12.9345 18.5C12.9345 18.8261 12.6487 19.0905 12.2962 19.0905ZM24.6366 31.6862C24.6366 32.0123 24.3508 32.2766 23.9983 32.2766C23.6458 32.2766 23.36 32.0123 23.36 31.6862V29.3245C23.36 28.9984 23.6458 28.7341 23.9983 28.7341C24.3508 28.7341 24.6366 28.9984 24.6366 29.3245V31.6862ZM34.5297 11.2635L26.3034 18.8729C26.1116 19.8895 25.1514 20.6649 23.9983 20.6649C23.5845 20.6649 23.1958 20.5647 22.8582 20.3897L16.1789 26.568C16.0543 26.6833 15.8909 26.741 15.7276 26.741C15.5643 26.741 15.4009 26.6833 15.2763 26.568C15.027 26.3374 15.027 25.9636 15.2763 25.7331L21.9555 19.5548C21.8292 19.3462 21.7394 19.1166 21.6934 18.873L16.175 13.7685C15.9257 13.5379 15.9257 13.164 16.175 12.9335L17.9804 11.2636C18.2297 11.033 18.6338 11.033 18.883 11.2636L24.4014 16.3681C24.4285 16.3724 24.4554 16.3768 24.4822 16.3821L25.352 15.5776C25.1029 15.347 25.1029 14.9733 25.3522 14.7428L31.8217 8.75858C31.9413 8.64789 32.1037 8.58562 32.273 8.58562C32.4423 8.58562 32.6046 8.64781 32.7243 8.75858L34.5297 10.4285C34.779 10.659 34.779 11.0329 34.5297 11.2635ZM35.7005 19.0905C35.348 19.0905 35.0622 18.8261 35.0622 18.5C35.0622 18.174 35.348 17.9096 35.7005 17.9096H38.2537C38.6062 17.9096 38.892 18.174 38.892 18.5C38.892 18.8261 38.6062 19.0905 38.2537 19.0905H35.7005Z" fill="#C7C7C7"/>
<path d="M36.2623 28.2371C38.7813 25.5265 40.1685 22.0685 40.1685 18.5C40.1685 10.2525 32.9146 3.5426 23.9983 3.5426C15.0821 3.5426 7.82812 10.2525 7.82812 18.5C7.82812 26.7476 15.0821 33.4575 23.9983 33.4575C27.8561 33.4575 31.5945 32.1743 34.5249 29.8442C34.789 29.6343 35.1852 29.6596 35.4164 29.8986C35.7292 29.6303 36.0311 29.3511 36.3212 29.0617C36.0627 28.8479 36.0353 28.4814 36.2623 28.2371ZM23.36 5.31388C23.36 4.98781 23.6458 4.72345 23.9983 4.72345C24.3508 4.72345 24.6366 4.98781 24.6366 5.31388V7.67558C24.6366 8.00165 24.3508 8.26601 23.9983 8.26601C23.6458 8.26601 23.36 8.00165 23.36 7.67558V5.31388ZM12.2962 19.0905H9.74302C9.39051 19.0905 9.10472 18.8261 9.10472 18.5C9.10472 18.174 9.39051 17.9096 9.74302 17.9096H12.2962C12.6487 17.9096 12.9345 18.174 12.9345 18.5C12.9345 18.8261 12.6487 19.0905 12.2962 19.0905ZM24.6366 31.6862C24.6366 32.0123 24.3508 32.2766 23.9983 32.2766C23.6458 32.2766 23.36 32.0123 23.36 31.6862V29.3245C23.36 28.9984 23.6458 28.7341 23.9983 28.7341C24.3508 28.7341 24.6366 28.9984 24.6366 29.3245V31.6862ZM34.5297 11.2635L26.3034 18.8729C26.1116 19.8895 25.1514 20.6649 23.9983 20.6649C23.5845 20.6649 23.1958 20.5647 22.8582 20.3897L16.1789 26.568C16.0543 26.6833 15.8909 26.741 15.7276 26.741C15.5643 26.741 15.4009 26.6833 15.2763 26.568C15.027 26.3374 15.027 25.9636 15.2763 25.7331L21.9555 19.5548C21.8292 19.3462 21.7394 19.1166 21.6934 18.873L16.175 13.7685C15.9257 13.5379 15.9257 13.164 16.175 12.9335L17.9804 11.2636C18.2297 11.033 18.6338 11.033 18.883 11.2636L24.4014 16.3681C24.4285 16.3724 24.4554 16.3768 24.4822 16.3821L25.352 15.5776C25.1029 15.347 25.1029 14.9733 25.3522 14.7428L31.8217 8.75858C31.9413 8.64789 32.1037 8.58562 32.273 8.58562C32.4423 8.58562 32.6046 8.64781 32.7243 8.75858L34.5297 10.4285C34.779 10.659 34.779 11.0329 34.5297 11.2635ZM35.7005 19.0905C35.348 19.0905 35.0622 18.8261 35.0622 18.5C35.0622 18.174 35.348 17.9096 35.7005 17.9096H38.2537C38.6062 17.9096 38.892 18.174 38.892 18.5C38.892 18.8261 38.6062 19.0905 38.2537 19.0905H35.7005Z" fill="url(#paint0_linear)"/>
<path d="M21.9567 17.4455C22.1683 17.0961 22.4816 16.8063 22.8594 16.6105L18.433 12.5161L17.5303 13.3511L21.9567 17.4455Z" fill="#C7C7C7"/>
<path d="M21.9567 17.4455C22.1683 17.0961 22.4816 16.8063 22.8594 16.6105L18.433 12.5161L17.5303 13.3511L21.9567 17.4455Z" fill="url(#paint1_linear)"/>
<path d="M26.0423 17.4454L33.1768 10.846L32.274 10.011L26.256 15.5778C26.0067 15.8083 25.6025 15.8083 25.3534 15.5778C25.3531 15.5775 24.4834 16.382 24.4834 16.382C25.1528 16.5127 25.7173 16.9089 26.0423 17.4454Z" fill="#C7C7C7"/>
<path d="M26.0423 17.4454L33.1768 10.846L32.274 10.011L26.256 15.5778C26.0067 15.8083 25.6025 15.8083 25.3534 15.5778C25.3531 15.5775 24.4834 16.382 24.4834 16.382C25.1528 16.5127 25.7173 16.9089 26.0423 17.4454Z" fill="url(#paint2_linear)"/>
<path d="M24.0027 1.18115C13.6785 1.18115 5.2793 8.95052 5.2793 18.5003C5.2793 28.0502 13.6785 35.8195 24.0027 35.8195C34.3269 35.8195 42.7261 28.0502 42.7261 18.5003C42.7261 8.95052 34.3269 1.18115 24.0027 1.18115ZM37.2348 29.0071C37.005 29.2544 36.6021 29.2826 36.3346 29.0699C36.3314 29.0674 36.3287 29.0645 36.3255 29.0619C36.0354 29.3513 35.7336 29.6305 35.4207 29.8988C35.4235 29.9017 35.4265 29.9043 35.4293 29.9072C35.6591 30.1545 35.6287 30.5273 35.3614 30.7399C32.1995 33.2541 28.1657 34.6386 24.0027 34.6386C14.3824 34.6386 6.55589 27.399 6.55589 18.5003C6.55589 9.60164 14.3824 2.362 24.0027 2.362C33.623 2.362 41.4495 9.60164 41.4495 18.5003C41.4495 22.3511 39.9527 26.0824 37.2348 29.0071Z" fill="#C7C7C7"/>
<path d="M24.0027 1.18115C13.6785 1.18115 5.2793 8.95052 5.2793 18.5003C5.2793 28.0502 13.6785 35.8195 24.0027 35.8195C34.3269 35.8195 42.7261 28.0502 42.7261 18.5003C42.7261 8.95052 34.3269 1.18115 24.0027 1.18115ZM37.2348 29.0071C37.005 29.2544 36.6021 29.2826 36.3346 29.0699C36.3314 29.0674 36.3287 29.0645 36.3255 29.0619C36.0354 29.3513 35.7336 29.6305 35.4207 29.8988C35.4235 29.9017 35.4265 29.9043 35.4293 29.9072C35.6591 30.1545 35.6287 30.5273 35.3614 30.7399C32.1995 33.2541 28.1657 34.6386 24.0027 34.6386C14.3824 34.6386 6.55589 27.399 6.55589 18.5003C6.55589 9.60164 14.3824 2.362 24.0027 2.362C33.623 2.362 41.4495 9.60164 41.4495 18.5003C41.4495 22.3511 39.9527 26.0824 37.2348 29.0071Z" fill="url(#paint3_linear)"/>
<path d="M38.1421 5.41853C34.3647 1.92431 29.3422 0 24 0C18.6578 0 13.6353 1.92431 9.85787 5.41853C6.08034 8.91275 4 13.5585 4 18.5C4 23.4415 6.08034 28.0873 9.85787 31.5815C13.6353 35.0757 18.6578 37 24 37C29.3422 37 34.3647 35.0757 38.1421 31.5815C41.9197 28.0873 44 23.4415 44 18.5C44 13.5585 41.9197 8.91275 38.1421 5.41853ZM24 35.8191C13.6758 35.8191 5.2766 28.0499 5.2766 18.5C5.2766 8.95022 13.6758 1.18085 24 1.18085C34.3242 1.18085 42.7234 8.95022 42.7234 18.5C42.7234 28.0499 34.3242 35.8191 24 35.8191Z" fill="#C7C7C7"/>
<path d="M38.1421 5.41853C34.3647 1.92431 29.3422 0 24 0C18.6578 0 13.6353 1.92431 9.85787 5.41853C6.08034 8.91275 4 13.5585 4 18.5C4 23.4415 6.08034 28.0873 9.85787 31.5815C13.6353 35.0757 18.6578 37 24 37C29.3422 37 34.3647 35.0757 38.1421 31.5815C41.9197 28.0873 44 23.4415 44 18.5C44 13.5585 41.9197 8.91275 38.1421 5.41853ZM24 35.8191C13.6758 35.8191 5.2766 28.0499 5.2766 18.5C5.2766 8.95022 13.6758 1.18085 24 1.18085C34.3242 1.18085 42.7234 8.95022 42.7234 18.5C42.7234 28.0499 34.3242 35.8191 24 35.8191Z" fill="url(#paint4_linear)"/>
<path d="M25.0632 18.5C25.0632 17.9574 24.586 17.516 23.9994 17.516C23.4127 17.516 22.9355 17.9574 22.9355 18.5C22.9355 19.0427 23.4127 19.4841 23.9994 19.4841C24.586 19.4841 25.0632 19.0427 25.0632 18.5Z" fill="#C7C7C7"/>
<path d="M25.0632 18.5C25.0632 17.9574 24.586 17.516 23.9994 17.516C23.4127 17.516 22.9355 17.9574 22.9355 18.5C22.9355 19.0427 23.4127 19.4841 23.9994 19.4841C24.586 19.4841 25.0632 19.0427 25.0632 18.5Z" fill="url(#paint5_linear)"/>
<path d="M38.8942 18.4998C38.8942 18.1738 38.6085 17.9094 38.2559 17.9094H35.7028C35.3502 17.9094 35.0645 18.1738 35.0645 18.4998C35.0645 18.8259 35.3502 19.0903 35.7028 19.0903H38.2559C38.6085 19.0903 38.8942 18.8259 38.8942 18.4998Z" fill="#C7C7C7"/>
<path d="M38.8942 18.4998C38.8942 18.1738 38.6085 17.9094 38.2559 17.9094H35.7028C35.3502 17.9094 35.0645 18.1738 35.0645 18.4998C35.0645 18.8259 35.3502 19.0903 35.7028 19.0903H38.2559C38.6085 19.0903 38.8942 18.8259 38.8942 18.4998Z" fill="url(#paint6_linear)"/>
<path d="M24.0035 28.734C23.651 28.734 23.3652 28.9984 23.3652 29.3244V31.6861C23.3652 32.0122 23.651 32.2766 24.0035 32.2766C24.356 32.2766 24.6418 32.0122 24.6418 31.6861V29.3244C24.6418 28.9984 24.356 28.734 24.0035 28.734Z" fill="#C7C7C7"/>
<path d="M24.0035 28.734C23.651 28.734 23.3652 28.9984 23.3652 29.3244V31.6861C23.3652 32.0122 23.651 32.2766 24.0035 32.2766C24.356 32.2766 24.6418 32.0122 24.6418 31.6861V29.3244C24.6418 28.9984 24.356 28.734 24.0035 28.734Z" fill="url(#paint7_linear)"/>
<path d="M12.2989 17.9094H9.74572C9.39321 17.9094 9.10742 18.1738 9.10742 18.4998C9.10742 18.8259 9.39321 19.0903 9.74572 19.0903H12.2989C12.6514 19.0903 12.9372 18.8259 12.9372 18.4998C12.9372 18.1738 12.6514 17.9094 12.2989 17.9094Z" fill="#C7C7C7"/>
<path d="M12.2989 17.9094H9.74572C9.39321 17.9094 9.10742 18.1738 9.10742 18.4998C9.10742 18.8259 9.39321 19.0903 9.74572 19.0903H12.2989C12.6514 19.0903 12.9372 18.8259 12.9372 18.4998C12.9372 18.1738 12.6514 17.9094 12.2989 17.9094Z" fill="url(#paint8_linear)"/>
<path d="M32.7287 8.7584C32.6091 8.64772 32.4467 8.58545 32.2774 8.58545C32.1081 8.58545 31.9457 8.64764 31.8261 8.7584L25.3566 14.7426C25.1074 14.9731 25.1073 15.3468 25.3564 15.5774C25.6058 15.8082 26.01 15.8082 26.2593 15.5777L32.2773 10.0109L33.18 10.8459L26.0456 17.4453C25.7205 16.9088 25.156 16.5126 24.4866 16.3818C24.4599 16.3766 24.4328 16.3722 24.4058 16.3678L18.8874 11.2633C18.6382 11.0327 18.234 11.0327 17.9848 11.2633L16.1794 12.9333C15.9302 13.1638 15.9302 13.5377 16.1794 13.7682L21.6978 18.8727C21.7438 19.1163 21.8336 19.346 21.9599 19.5545L15.2807 25.7328C15.0314 25.9634 15.0314 26.3373 15.2807 26.5678C15.4053 26.683 15.5687 26.7407 15.732 26.7407C15.8953 26.7407 16.0587 26.6831 16.1833 26.5678L22.8626 20.3895C23.2002 20.5645 23.589 20.6647 24.0028 20.6647C25.1558 20.6647 26.116 19.8893 26.3077 18.8727L34.5341 11.2633C34.7834 11.0327 34.7834 10.6589 34.5341 10.4284L32.7287 8.7584ZM22.8626 16.6103C22.4848 16.8061 22.1715 17.0958 21.9599 17.4453L17.5335 13.3509L18.4362 12.5159L22.8626 16.6103ZM22.9389 18.5C22.9389 17.9573 23.4161 17.5159 24.0028 17.5159C24.5894 17.5159 25.0666 17.9573 25.0666 18.5C25.0666 19.0426 24.5894 19.484 24.0028 19.484C23.4161 19.484 22.9389 19.0426 22.9389 18.5Z" fill="#C7C7C7"/>
<path d="M32.7287 8.7584C32.6091 8.64772 32.4467 8.58545 32.2774 8.58545C32.1081 8.58545 31.9457 8.64764 31.8261 8.7584L25.3566 14.7426C25.1074 14.9731 25.1073 15.3468 25.3564 15.5774C25.6058 15.8082 26.01 15.8082 26.2593 15.5777L32.2773 10.0109L33.18 10.8459L26.0456 17.4453C25.7205 16.9088 25.156 16.5126 24.4866 16.3818C24.4599 16.3766 24.4328 16.3722 24.4058 16.3678L18.8874 11.2633C18.6382 11.0327 18.234 11.0327 17.9848 11.2633L16.1794 12.9333C15.9302 13.1638 15.9302 13.5377 16.1794 13.7682L21.6978 18.8727C21.7438 19.1163 21.8336 19.346 21.9599 19.5545L15.2807 25.7328C15.0314 25.9634 15.0314 26.3373 15.2807 26.5678C15.4053 26.683 15.5687 26.7407 15.732 26.7407C15.8953 26.7407 16.0587 26.6831 16.1833 26.5678L22.8626 20.3895C23.2002 20.5645 23.589 20.6647 24.0028 20.6647C25.1558 20.6647 26.116 19.8893 26.3077 18.8727L34.5341 11.2633C34.7834 11.0327 34.7834 10.6589 34.5341 10.4284L32.7287 8.7584ZM22.8626 16.6103C22.4848 16.8061 22.1715 17.0958 21.9599 17.4453L17.5335 13.3509L18.4362 12.5159L22.8626 16.6103ZM22.9389 18.5C22.9389 17.9573 23.4161 17.5159 24.0028 17.5159C24.5894 17.5159 25.0666 17.9573 25.0666 18.5C25.0666 19.0426 24.5894 19.484 24.0028 19.484C23.4161 19.484 22.9389 19.0426 22.9389 18.5Z" fill="url(#paint9_linear)"/>
<path d="M24.0005 2.36157C14.3803 2.36157 6.55371 9.60121 6.55371 18.4999C6.55371 27.3986 14.3803 34.6382 24.0005 34.6382C28.1635 34.6382 32.1974 33.2537 35.3592 30.7395C35.6266 30.527 35.657 30.1542 35.4272 29.9069C35.4244 29.9039 35.4213 29.9014 35.4185 29.8985C35.1873 29.6594 34.7912 29.6341 34.527 29.8441C31.5967 32.1741 27.8583 33.4573 24.0005 33.4573C15.0843 33.4573 7.83031 26.7474 7.83031 18.4999C7.83031 10.2523 15.0843 3.54242 24.0005 3.54242C32.9168 3.54242 40.1707 10.2523 40.1707 18.4999C40.1707 22.0683 38.7835 25.5263 36.2645 28.2369C36.0375 28.4812 36.0649 28.8477 36.3233 29.0616C36.3265 29.0642 36.3292 29.067 36.3324 29.0696C36.5999 29.2821 37.0028 29.254 37.2326 29.0068C39.9506 26.082 41.4473 22.3506 41.4473 18.4999C41.4473 9.60121 33.6208 2.36157 24.0005 2.36157Z" fill="#C7C7C7"/>
<path d="M24.0005 2.36157C14.3803 2.36157 6.55371 9.60121 6.55371 18.4999C6.55371 27.3986 14.3803 34.6382 24.0005 34.6382C28.1635 34.6382 32.1974 33.2537 35.3592 30.7395C35.6266 30.527 35.657 30.1542 35.4272 29.9069C35.4244 29.9039 35.4213 29.9014 35.4185 29.8985C35.1873 29.6594 34.7912 29.6341 34.527 29.8441C31.5967 32.1741 27.8583 33.4573 24.0005 33.4573C15.0843 33.4573 7.83031 26.7474 7.83031 18.4999C7.83031 10.2523 15.0843 3.54242 24.0005 3.54242C32.9168 3.54242 40.1707 10.2523 40.1707 18.4999C40.1707 22.0683 38.7835 25.5263 36.2645 28.2369C36.0375 28.4812 36.0649 28.8477 36.3233 29.0616C36.3265 29.0642 36.3292 29.067 36.3324 29.0696C36.5999 29.2821 37.0028 29.254 37.2326 29.0068C39.9506 26.082 41.4473 22.3506 41.4473 18.4999C41.4473 9.60121 33.6208 2.36157 24.0005 2.36157Z" fill="url(#paint10_linear)"/>
</g>
<defs>
<filter id="filter0_d" x="0" y="0" width="48" height="45" filterUnits="userSpaceOnUse" color-interpolation-filters="sRGB">
<feFlood flood-opacity="0" result="BackgroundImageFix"/>
<feColorMatrix in="SourceAlpha" type="matrix" values="0 0 0 0 0 0 0 0 0 0 0 0 0 0 0 0 0 0 127 0"/>
<feOffset dy="4"/>
<feGaussianBlur stdDeviation="2"/>
<feColorMatrix type="matrix" values="0 0 0 0 0 0 0 0 0 0 0 0 0 0 0 0 0 0 0.25 0"/>
<feBlend mode="normal" in2="BackgroundImageFix" result="effect1_dropShadow"/>
<feBlend mode="normal" in="SourceGraphic" in2="effect1_dropShadow" result="shape"/>
</filter>
<linearGradient id="paint0_linear" x1="23.9983" y1="3.5426" x2="23.9983" y2="33.4575" gradientUnits="userSpaceOnUse">
<stop stop-color="white"/>
<stop offset="1" stop-color="white" stop-opacity="0"/>
</linearGradient>
<linearGradient id="paint1_linear" x1="20.1948" y1="12.5161" x2="20.1948" y2="17.4455" gradientUnits="userSpaceOnUse">
<stop stop-color="white"/>
<stop offset="1" stop-color="white" stop-opacity="0"/>
</linearGradient>
<linearGradient id="paint2_linear" x1="28.8301" y1="10.011" x2="28.8301" y2="17.4454" gradientUnits="userSpaceOnUse">
<stop stop-color="white"/>
<stop offset="1" stop-color="white" stop-opacity="0"/>
</linearGradient>
<linearGradient id="paint3_linear" x1="24.0027" y1="1.18115" x2="24.0027" y2="35.8195" gradientUnits="userSpaceOnUse">
<stop stop-color="white"/>
<stop offset="1" stop-color="white" stop-opacity="0"/>
</linearGradient>
<linearGradient id="paint4_linear" x1="24" y1="0" x2="24" y2="37" gradientUnits="userSpaceOnUse">
<stop stop-color="white"/>
<stop offset="1" stop-color="white" stop-opacity="0"/>
</linearGradient>
<linearGradient id="paint5_linear" x1="23.9994" y1="17.516" x2="23.9994" y2="19.4841" gradientUnits="userSpaceOnUse">
<stop stop-color="white"/>
<stop offset="1" stop-color="white" stop-opacity="0"/>
</linearGradient>
<linearGradient id="paint6_linear" x1="36.9794" y1="17.9094" x2="36.9794" y2="19.0903" gradientUnits="userSpaceOnUse">
<stop stop-color="white"/>
<stop offset="1" stop-color="white" stop-opacity="0"/>
</linearGradient>
<linearGradient id="paint7_linear" x1="24.0035" y1="28.734" x2="24.0035" y2="32.2766" gradientUnits="userSpaceOnUse">
<stop stop-color="white"/>
<stop offset="1" stop-color="white" stop-opacity="0"/>
</linearGradient>
<linearGradient id="paint8_linear" x1="11.0223" y1="17.9094" x2="11.0223" y2="19.0903" gradientUnits="userSpaceOnUse">
<stop stop-color="white"/>
<stop offset="1" stop-color="white" stop-opacity="0"/>
</linearGradient>
<linearGradient id="paint9_linear" x1="24.9074" y1="8.58545" x2="24.9074" y2="26.7407" gradientUnits="userSpaceOnUse">
<stop stop-color="white"/>
<stop offset="1" stop-color="white" stop-opacity="0"/>
</linearGradient>
<linearGradient id="paint10_linear" x1="24.0005" y1="2.36157" x2="24.0005" y2="34.6382" gradientUnits="userSpaceOnUse">
<stop stop-color="white"/>
<stop offset="1" stop-color="white" stop-opacity="0"/>
</linearGradient>
</defs>
</svg>
